<svg width="83" height="82" viewBox="0 0 83 82" fill="none" xmlns="http://www.w3.org/2000/svg">
<circle cx="41.1418" cy="40.4207" r="8.61098" stroke="url(#paint0_linear_0_253)" stroke-width="17.222"/>
<path fill-rule="evenodd" clip-rule="evenodd" d="M36.3578 2.77632C36.3578 1.06026 34.8573 -0.280115 33.1734 0.0503513C14.2649 3.76106 0 20.425 0 40.4207C0 63.1424 18.4196 81.5621 41.1414 81.5621C63.8631 81.5621 82.2827 63.1424 82.2827 40.4207C82.2827 20.4252 68.0181 3.76146 49.11 0.0504857C47.4261 -0.280012 45.9256 1.06037 45.9256 2.77644V14.6336C45.9256 15.9988 46.8942 17.1572 48.1987 17.5595C57.9642 20.5706 65.0608 29.6669 65.0608 40.4207C65.0608 53.631 54.3517 64.3401 41.1414 64.3401C27.931 64.3401 17.222 53.631 17.222 40.4207C17.222 29.6667 24.3188 20.5703 34.0846 17.5593C35.3891 17.1571 36.3578 15.9986 36.3578 14.6335V2.77632Z" fill="white"/>
<defs>
<linearGradient id="paint0_linear_0_253" x1="41.1418" y1="23.1987" x2="41.1418" y2="57.6427" gradientUnits="userSpaceOnUse">
<stop stop-color="white"/>
</linearGradient>
</defs>
</svg>
