<svg width="21" height="21" viewBox="0 0 21 21" fill="none" xmlns="http://www.w3.org/2000/svg">
<g clip-path="url(#clip0_655_1492)">
<path d="M14.349 0.5C14.3956 0.5 14.4421 0.5 14.4913 0.5C14.6055 1.91044 14.0671 2.96432 13.4128 3.72751C12.7708 4.48542 11.8917 5.2205 10.4699 5.10897C10.375 3.71872 10.9142 2.74301 11.5676 1.98158C12.1736 1.27197 13.2846 0.640517 14.349 0.5Z" fill="black"/>
<path d="M18.6532 15.1805C18.6532 15.1945 18.6532 15.2068 18.6532 15.22C18.2536 16.4302 17.6836 17.4674 16.988 18.4299C16.3531 19.3038 15.575 20.4797 14.1856 20.4797C12.9851 20.4797 12.1876 19.7078 10.9572 19.6867C9.65568 19.6656 8.93992 20.3322 7.74991 20.4999C7.61379 20.4999 7.47766 20.4999 7.34417 20.4999C6.47033 20.3735 5.7651 19.6814 5.25134 19.0579C3.73639 17.2153 2.5657 14.8353 2.3479 11.7896C2.3479 11.491 2.3479 11.1933 2.3479 10.8947C2.44011 8.71493 3.49926 6.94266 4.90707 6.08374C5.65006 5.62706 6.67144 5.23801 7.80875 5.4119C8.29617 5.48742 8.79413 5.65429 9.23061 5.8194C9.64426 5.97836 10.1615 6.26027 10.6516 6.24534C10.9836 6.23568 11.3138 6.06267 11.6484 5.94059C12.6285 5.58667 13.5893 5.18092 14.8557 5.3715C16.3777 5.60159 17.4579 6.27783 18.1254 7.32118C16.8379 8.14057 15.82 9.37536 15.9939 11.484C16.1485 13.3994 17.2621 14.5201 18.6532 15.1805Z" fill="black"/>
</g>
<defs>
<clipPath id="clip0_655_1492">
<rect width="20" height="20" fill="white" transform="translate(0.5 0.5)"/>
</clipPath>
</defs>
</svg>
