<svg width="21" height="21" viewBox="0 0 21 21" fill="none" xmlns="http://www.w3.org/2000/svg">
<g clip-path="url(#clip0_655_1499)">
<path d="M20.5 10.5C20.5 15.4914 16.843 19.6285 12.0625 20.3785V13.3906H14.3926L14.8359 10.5H12.0625V8.62422C12.0625 7.8332 12.45 7.0625 13.6922 7.0625H14.9531V4.60156C14.9531 4.60156 13.8086 4.40625 12.7145 4.40625C10.4305 4.40625 8.9375 5.79062 8.9375 8.29687V10.5H6.39844V13.3906H8.9375V20.3785C4.15703 19.6285 0.5 15.4914 0.5 10.5C0.5 4.97734 4.97734 0.5 10.5 0.5C16.0227 0.5 20.5 4.97734 20.5 10.5Z" fill="#1877F2"/>
<path d="M14.3926 13.3906L14.8359 10.5H12.0625V8.62418C12.0625 7.83336 12.4499 7.0625 13.6921 7.0625H14.9531V4.60156C14.9531 4.60156 13.8088 4.40625 12.7146 4.40625C10.4304 4.40625 8.9375 5.79063 8.9375 8.29688V10.5H6.39844V13.3906H8.9375V20.3785C9.44664 20.4584 9.96844 20.5 10.5 20.5C11.0316 20.5 11.5534 20.4584 12.0625 20.3785V13.3906H14.3926Z" fill="white"/>
</g>
<defs>
<clipPath id="clip0_655_1499">
<rect width="20" height="20" fill="white" transform="translate(0.5 0.5)"/>
</clipPath>
</defs>
</svg>
