<svg width="21" height="22" viewBox="0 0 21 22" fill="none" xmlns="http://www.w3.org/2000/svg">
<path d="M20.5002 11.2291C20.5002 10.5565 20.4406 9.91793 20.3384 9.29639H10.7173V13.1363H16.226C15.9791 14.3964 15.2554 15.4607 14.1826 16.1844V18.7387H17.4691C19.3933 16.9592 20.5002 14.3368 20.5002 11.2291Z" fill="#4285F4"/>
<path d="M10.7174 21.2166C13.476 21.2166 15.7834 20.297 17.4692 18.7389L14.1827 16.1846C13.2632 16.7977 12.0967 17.1723 10.7174 17.1723C8.05244 17.1723 5.79616 15.3758 4.98731 12.9492H1.59863V15.5801C3.27594 18.9177 6.72422 21.2166 10.7174 21.2166Z" fill="#34A853"/>
<path d="M4.98702 12.9499C4.77416 12.3368 4.66347 11.6812 4.66347 11.0001C4.66347 10.319 4.78267 9.66337 4.98702 9.05034V6.41943H1.59834C0.900169 7.79874 0.5 9.34834 0.5 11.0001C0.5 12.6519 0.900169 14.2015 1.59834 15.5808L4.98702 12.9499Z" fill="#FBBC05"/>
<path d="M10.7174 4.82699C12.2244 4.82699 13.5697 5.34636 14.634 6.35956L17.5458 3.44768C15.7834 1.79591 13.476 0.782715 10.7174 0.782715C6.72422 0.782715 3.27594 3.08157 1.59863 6.41916L4.98731 9.05007C5.79616 6.6235 8.05244 4.82699 10.7174 4.82699Z" fill="#EA4335"/>
</svg>
